# xmcd
#
# Track frame offsets: 
#        161
#        12975
#        30964
#        45790
#        61575
#        78133
#        91297
#        115129
#        142527
#        161316
#        180498
#        202722
#        219076
#        234367
#        246697
#        264424
#
# Disc length: 3708 seconds
#
# Revision: 0
# Processed by: cddbd v1.5.1PL2 Copyright (c) Steve Scherf et al.
# Submitted via: ExactAudioCopy v0.95b4
#
DISCID=ab0e7a10
DTITLE=The Aces - Chicago Beat
DYEAR=2002
DGENRE=Chicago Blues
TTITLE0=01 - Tell Me Mama
TTITLE1=02 - Hoo-Doo Man 
TTITLE2=03 - Take A Little Walk With Me
TTITLE3=04 - Whole Lot Of Lovin'
TTITLE4=05 - Got My Mojo Working
TTITLE5=06 - Ace's Shuffle (take 3)
TTITLE6=07 - Blues For Marcelle
TTITLE7=08 - Kansas City
TTITLE8=09 - Early In The Morning
TTITLE9=10 - Money Marbles And Chalk
TTITLE10=11 - Route 66
TTITLE11=12 - Blue Shadows
TTITLE12=13 - Wee Wee Baby
TTITLE13=14 - Fannie Mae
TTITLE14=15 - Aces Shuffle (take 2)
TTITLE15=16 - Stop, Stop, Stop
EXTD=
EXTT0=Tell Me Mama    
EXTT1=
EXTT2=
EXTT3=
EXTT4=
EXTT5=
EXTT6=
EXTT7=
EXTT8=
EXTT9=
EXTT10=
EXTT11=
EXTT12=
EXTT13=
EXTT14=
EXTT15=
PLAYORDER=
